 <svg version="1.0" xmlns="http://www.w3.org/2000/svg" width="700.000000pt" height="724.000000pt" viewBox="0 0 700.000000 724.000000" preserveAspectRatio="xMidYMid meet">
<metadata>
Created by potrace 1.12, written by Peter Selinger 2001-2015
</metadata>
<g transform="translate(0.000000,724.000000) scale(0.100000,-0.100000)" fill="#000000" stroke="none">
<path d="M4118 6278 c-15 -51 -15 -51 3 -27 10 13 19 29 19 36 0 6 3 18 6 27
3 9 2 16 -3 16 -5 0 -16 -23 -25 -52z"></path>
<path d="M3400 6185 c0 -57 4 -95 10 -95 6 0 10 38 10 95 0 57 -4 95 -10 95
-6 0 -10 -38 -10 -95z"></path>
<path d="M3180 6205 c0 -30 5 -55 10 -55 6 0 10 25 10 55 0 30 -4 55 -10 55
-5 0 -10 -25 -10 -55z"></path>
<path d="M4079 6194 c-5 -15 -12 -32 -15 -38 -3 -6 4 0 15 14 11 14 21 31 21
38 0 20 -10 14 -21 -14z"></path>
<path d="M4001 6051 c-28 -50 -51 -94 -51 -98 0 -3 -6 -14 -14 -22 -50 -56
-163 -321 -137 -321 6 0 14 12 17 28 4 15 15 43 26 62 10 19 18 41 18 48 0 8
9 25 20 39 11 14 20 33 20 43 0 10 9 29 20 43 11 14 20 32 20 40 0 8 7 17 15
20 8 4 21 21 29 39 9 18 20 40 25 48 5 8 20 36 32 62 39 83 13 63 -40 -31z"></path>
<path d="M4688 6073 c-8 -62 9 -61 19 1 3 22 2 36 -5 36 -5 0 -12 -17 -14 -37z"></path>
<path d="M3390 6060 c0 -5 5 -10 10 -10 6 0 10 5 10 10 0 6 -4 10 -10 10 -5 0
-10 -4 -10 -10z"></path>
<path d="M2750 5990 c0 -11 5 -20 10 -20 6 0 10 9 10 20 0 11 -4 20 -10 20 -5
0 -10 -9 -10 -20z"></path>
<path d="M2540 5940 c0 -22 5 -40 10 -40 6 0 10 18 10 40 0 22 -4 40 -10 40
-5 0 -10 -18 -10 -40z"></path>
<path d="M3666 5971 c-4 -7 -5 -15 -2 -18 9 -9 19 4 14 18 -4 11 -6 11 -12 0z"></path>
<path d="M4624 5924 c-17 -27 -39 -65 -49 -84 -10 -19 -28 -49 -41 -65 -28
-37 -130 -216 -139 -244 -3 -12 -2 -21 3 -21 6 0 13 12 17 28 3 15 14 35 22
45 17 18 34 45 55 87 6 14 21 38 33 55 28 41 40 62 72 125 15 30 36 62 47 70
10 9 17 24 15 34 -3 14 -12 7 -35 -30z"></path>
<path d="M2760 5930 c0 -11 5 -20 10 -20 6 0 10 9 10 20 0 11 -4 20 -10 20 -5
0 -10 -9 -10 -20z"></path>
<path d="M3360 5920 c0 -16 5 -30 10 -30 6 0 10 14 10 30 0 17 -4 30 -10 30
-5 0 -10 -13 -10 -30z"></path>
<path d="M3625 5857 c-4 -10 -5 -21 -1 -24 10 -10 18 4 13 24 -4 17 -4 17 -12
0z"></path>
<path d="M5057 5835 c-10 -14 -14 -25 -9 -25 10 0 42 33 42 43 0 14 -16 5 -33
-18z"></path>
<path d="M3350 5830 c0 -5 5 -10 10 -10 6 0 10 5 10 10 0 6 -4 10 -10 10 -5 0
-10 -4 -10 -10z"></path>
<path d="M5286 5774 c-9 -24 -7 -28 9 -14 17 14 20 30 6 30 -5 0 -12 -7 -15
-16z"></path>
<path d="M4975 5770 c-3 -5 -1 -10 4 -10 6 0 11 5 11 10 0 6 -2 10 -4 10 -3 0
-8 -4 -11 -10z"></path>
<path d="M3330 5760 c0 -5 5 -10 10 -10 6 0 10 5 10 10 0 6 -4 10 -10 10 -5 0
-10 -4 -10 -10z"></path>
<path d="M2792 5690 c5 -65 12 -90 22 -79 8 9 -7 149 -17 149 -6 0 -8 -27 -5
-70z"></path>
<path d="M3320 5645 c0 -50 4 -85 10 -85 6 0 10 35 10 85 0 50 -4 85 -10 85
-6 0 -10 -35 -10 -85z"></path>
<path d="M5179 5642 c-43 -48 -75 -89 -72 -92 5 -5 162 161 163 173 1 19 -21
0 -91 -81z"></path>
<path d="M2190 5700 c0 -5 5 -10 10 -10 6 0 10 5 10 10 0 6 -4 10 -10 10 -5 0
-10 -4 -10 -10z"></path>
<path d="M4196 5681 c-4 -7 -5 -15 -2 -18 9 -9 19 4 14 18 -4 11 -6 11 -12 0z"></path>
<path d="M2226 5608 c8 -28 12 -33 20 -25 9 8 -6 47 -17 47 -6 0 -7 -10 -3
-22z"></path>
<path d="M2265 5523 c4 -18 15 -50 26 -72 10 -22 19 -45 19 -50 0 -10 32 -80
51 -111 5 -8 16 -31 25 -50 9 -19 18 -30 21 -24 2 7 -12 43 -31 80 -19 38 -40
88 -45 110 -6 23 -18 47 -26 54 -8 7 -15 22 -15 34 0 12 -7 31 -15 42 -15 18
-16 17 -10 -13z"></path>
<path d="M2824 5533 c2 -10 8 -37 11 -60 4 -24 11 -43 17 -43 10 0 4 74 -9
106 -8 20 -25 17 -19 -3z"></path>
<path d="M4994 5458 c-105 -108 -154 -165 -154 -180 0 -6 56 47 125 118 69 71
125 132 125 137 0 18 -21 2 -96 -75z"></path>
<path d="M5614 5455 c-10 -8 -14 -15 -7 -15 19 0 43 11 43 21 0 13 -14 11 -36
-6z"></path>
<path d="M5540 5420 c-8 -5 -12 -11 -9 -14 7 -8 49 5 49 15 0 12 -21 11 -40
-1z"></path>
<path d="M5475 5380 c-3 -5 1 -10 9 -10 9 0 16 5 16 10 0 6 -4 10 -9 10 -6 0
-13 -4 -16 -10z"></path>
<path d="M5825 5330 c-3 -5 -1 -10 4 -10 6 0 11 5 11 10 0 6 -2 10 -4 10 -3 0
-8 -4 -11 -10z"></path>
<path d="M5756 5281 c-4 -5 -36 -26 -73 -47 -37 -21 -62 -39 -56 -41 14 -5 95
40 113 62 7 8 18 15 26 15 7 0 16 5 19 10 3 6 -1 10 -9 10 -8 0 -17 -4 -20 -9z"></path>
<path d="M5120 5179 c0 -5 5 -7 10 -4 6 3 10 8 10 11 0 2 -4 4 -10 4 -5 0 -10
-5 -10 -11z"></path>
<path d="M5536 5155 c-236 -126 -361 -204 -327 -205 8 0 22 7 31 15 16 14 109
68 185 106 22 11 54 29 70 39 17 11 44 27 62 35 32 15 52 35 35 35 -5 0 -30
-11 -56 -25z"></path>
<path d="M1796 5127 c3 -10 9 -15 12 -12 3 3 0 11 -7 18 -10 9 -11 8 -5 -6z"></path>
<path d="M1885 5003 c30 -46 141 -177 171 -200 15 -13 30 -20 33 -16 3 3 0 8
-6 10 -7 3 -56 56 -108 119 -94 111 -125 142 -90 87z"></path>
<path d="M5165 4920 c-3 -5 -1 -10 4 -10 6 0 11 5 11 10 0 6 -2 10 -4 10 -3 0
-8 -4 -11 -10z"></path>
<path d="M6040 4900 c0 -5 14 -10 30 -10 17 0 30 5 30 10 0 6 -13 10 -30 10
-16 0 -30 -4 -30 -10z"></path>
<path d="M5790 4860 c0 -5 14 -10 30 -10 17 0 30 5 30 10 0 6 -13 10 -30 10
-16 0 -30 -4 -30 -10z"></path>
<path d="M6230 4720 c0 -5 5 -10 10 -10 6 0 10 5 10 10 0 6 -4 10 -10 10 -5 0
-10 -4 -10 -10z"></path>
<path d="M6088 4683 c-16 -2 -28 -9 -28 -15 0 -6 12 -8 31 -4 17 3 38 6 45 6
8 0 14 5 14 10 0 10 -12 11 -62 3z"></path>
<path d="M5960 4640 c0 -5 5 -10 10 -10 6 0 10 5 10 10 0 6 -4 10 -10 10 -5 0
-10 -4 -10 -10z"></path>
<path d="M5890 4630 c0 -5 7 -10 15 -10 8 0 15 5 15 10 0 6 -7 10 -15 10 -8 0
-15 -4 -15 -10z"></path>
<path d="M5665 4595 c-74 -16 -124 -36 -108 -42 7 -3 34 2 60 11 27 9 74 19
106 22 32 4 60 11 63 15 7 13 -51 10 -121 -6z"></path>
<path d="M1585 4530 c3 -5 8 -10 11 -10 2 0 4 5 4 10 0 6 -5 10 -11 10 -5 0
-7 -4 -4 -10z"></path>
<path d="M1640 4490 c0 -5 5 -10 10 -10 6 0 10 5 10 10 0 6 -4 10 -10 10 -5 0
-10 -4 -10 -10z"></path>
<path d="M3056 4462 c-78 -19 -9 -42 125 -42 44 0 60 -5 74 -20 13 -14 29 -20
49 -18 40 4 40 28 1 41 -16 5 -38 17 -48 25 -19 17 -150 26 -201 14z"></path>
<path d="M4261 4463 c-32 -3 -45 -9 -48 -23 -3 -12 -16 -20 -37 -22 -19 -2
-31 -8 -31 -18 0 -12 10 -14 45 -12 51 3 57 7 42 25 -9 10 6 12 82 9 95 -4
150 8 128 30 -11 11 -115 18 -181 11z"></path>
<path d="M1700 4456 c0 -5 90 -56 98 -56 2 0 -12 14 -33 30 -33 26 -65 39 -65
26z"></path>
<path d="M5810 4330 c0 -6 38 -10 95 -10 57 0 95 4 95 10 0 6 -38 10 -95 10
-57 0 -95 -4 -95 -10z"></path>
<path d="M6240 4290 c0 -6 37 -10 90 -10 53 0 90 4 90 10 0 6 -37 10 -90 10
-53 0 -90 -4 -90 -10z"></path>
<path d="M2877 4200 c-20 -11 -47 -20 -60 -20 -13 0 -32 -9 -42 -20 -10 -11
-24 -20 -31 -20 -7 0 -29 -15 -49 -34 -39 -37 -125 -86 -150 -86 -9 0 -29 7
-45 15 -38 20 -42 0 -7 -33 32 -30 142 -32 178 -3 13 10 35 22 49 26 14 4 33
14 42 23 10 8 40 17 68 20 27 2 55 11 61 18 16 19 216 20 244 0 11 -7 44 -16
74 -20 30 -4 65 -16 79 -27 14 -10 30 -19 35 -19 6 0 26 -14 43 -31 34 -33 64
-34 64 -3 0 20 -132 154 -152 154 -7 0 -26 9 -43 20 -18 12 -47 20 -73 20 -29
0 -53 7 -69 20 -21 16 -41 20 -102 20 -57 0 -86 -5 -114 -20z"></path>
<path d="M4390 4195 c-8 -10 -30 -15 -61 -15 -31 0 -60 -7 -81 -20 -18 -11
-43 -20 -55 -20 -31 0 -168 -132 -160 -154 9 -23 35 -19 61 9 13 14 30 25 38
25 9 0 26 9 40 20 16 12 49 22 94 26 38 4 86 13 106 20 43 15 123 10 181 -12
20 -8 50 -14 66 -14 16 0 34 -7 41 -15 7 -8 27 -17 46 -21 18 -3 38 -12 45
-20 20 -24 117 -64 156 -64 28 1 47 8 71 30 17 16 32 34 32 40 0 15 -38 12
-65 -6 -35 -23 -59 -14 -145 55 -41 33 -86 66 -100 73 -14 7 -36 20 -49 30
-15 11 -41 18 -70 18 -25 0 -59 7 -75 15 -37 19 -100 19 -116 0z"></path>
<path d="M5683 4084 c-90 -14 -1 -19 332 -21 235 -2 365 1 365 7 0 6 -44 10
-108 10 -60 0 -210 2 -333 4 -123 2 -239 2 -256 0z"></path>
<path d="M1260 4050 c0 -5 5 -10 10 -10 6 0 10 5 10 10 0 6 -4 10 -10 10 -5 0
-10 -4 -10 -10z"></path>
<path d="M1360 4010 c0 -5 5 -10 10 -10 6 0 10 5 10 10 0 6 -4 10 -10 10 -5 0
-10 -4 -10 -10z"></path>
<path d="M1610 3920 c0 -5 9 -10 21 -10 11 0 17 5 14 10 -3 6 -13 10 -21 10
-8 0 -14 -4 -14 -10z"></path>
<path d="M5710 3590 c0 -5 7 -10 15 -10 8 0 15 5 15 10 0 6 -7 10 -15 10 -8 0
-15 -4 -15 -10z"></path>
<path d="M5760 3580 c0 -5 7 -10 15 -10 8 0 15 5 15 10 0 6 -7 10 -15 10 -8 0
-15 -4 -15 -10z"></path>
<path d="M3725 3560 c-19 -21 -55 -26 -71 -10 -13 13 -77 -17 -71 -33 3 -11
33 -16 111 -19 17 0 34 6 41 16 15 20 24 20 47 -1 14 -13 21 -14 30 -5 9 9 5
19 -17 42 -34 35 -46 37 -70 10z"></path>
<path d="M5810 3570 c0 -5 5 -10 10 -10 6 0 10 5 10 10 0 6 -4 10 -10 10 -5 0
-10 -4 -10 -10z"></path>
<path d="M1060 3530 c0 -5 18 -10 40 -10 22 0 40 5 40 10 0 6 -18 10 -40 10
-22 0 -40 -4 -40 -10z"></path>
<path d="M5934 3525 c11 -8 25 -15 32 -15 7 0 19 -3 28 -6 9 -3 16 -2 16 3 0
6 -17 15 -39 21 -50 16 -60 15 -37 -3z"></path>
<path d="M1310 3490 c0 -5 14 -10 30 -10 17 0 30 5 30 10 0 6 -13 10 -30 10
-16 0 -30 -4 -30 -10z"></path>
<path d="M6060 3480 c0 -5 7 -10 15 -10 8 0 15 5 15 10 0 6 -7 10 -15 10 -8 0
-15 -4 -15 -10z"></path>
<path d="M1530 3440 c0 -5 16 -10 35 -10 19 0 35 5 35 10 0 6 -16 10 -35 10
-19 0 -35 -4 -35 -10z"></path>
<path d="M6200 3430 c0 -5 5 -10 10 -10 6 0 10 5 10 10 0 6 -4 10 -10 10 -5 0
-10 -4 -10 -10z"></path>
<path d="M1710 3410 c0 -5 11 -10 25 -10 14 0 25 5 25 10 0 6 -11 10 -25 10
-14 0 -25 -4 -25 -10z"></path>
<path d="M6350 3390 c0 -5 14 -10 30 -10 17 0 30 5 30 10 0 6 -13 10 -30 10
-16 0 -30 -4 -30 -10z"></path>
<path d="M3223 3263 c-9 -25 -69 -83 -86 -83 -8 0 -22 -9 -32 -20 -12 -13 -31
-20 -55 -20 -26 0 -43 -7 -60 -25 -13 -14 -32 -25 -43 -25 -26 0 -16 -24 12
-28 13 -2 30 3 39 11 9 8 35 17 57 20 69 11 165 71 165 104 0 7 11 18 25 23
28 11 29 14 15 41 -13 24 -29 24 -37 2z"></path>
<path d="M4183 3254 c-8 -21 13 -42 28 -27 13 13 5 43 -11 43 -6 0 -13 -7 -17
-16z"></path>
<path d="M4224 3195 c-10 -26 4 -44 44 -55 22 -5 45 -17 52 -25 7 -8 28 -17
49 -21 20 -4 43 -13 52 -21 19 -16 124 -15 124 1 0 15 -56 42 -115 55 -55 13
-156 56 -166 72 -8 14 -34 10 -40 -6z"></path>
<path d="M3224 3128 c-9 -15 59 -78 85 -78 11 0 23 -4 26 -10 10 -16 102 -59
142 -66 21 -4 44 -11 51 -17 17 -13 232 -26 303 -18 32 4 63 12 70 18 8 6 32
14 53 18 22 3 51 15 64 26 14 10 34 19 46 19 12 0 27 5 33 11 6 6 20 16 30 23
66 39 83 52 83 64 0 24 -33 26 -71 4 -21 -12 -44 -22 -52 -22 -8 0 -22 -9 -31
-19 -10 -11 -37 -23 -59 -26 -23 -4 -50 -15 -61 -24 -16 -14 -47 -16 -225 -16
-193 1 -208 2 -246 23 -22 12 -49 22 -61 22 -11 0 -29 9 -39 20 -10 11 -27 20
-37 20 -11 0 -31 9 -45 20 -29 23 -48 25 -59 8z"></path>
<path d="M5690 3110 c0 -5 5 -10 10 -10 6 0 10 5 10 10 0 6 -4 10 -10 10 -5 0
-10 -4 -10 -10z"></path>
<path d="M5759 3080 c13 -11 30 -20 38 -20 23 0 6 17 -29 29 l-33 11 24 -20z"></path>
<path d="M1740 2920 c0 -5 9 -10 20 -10 11 0 20 5 20 10 0 6 -9 10 -20 10 -11
0 -20 -4 -20 -10z"></path>
<path d="M1520 2890 c0 -5 18 -10 40 -10 22 0 40 5 40 10 0 6 -18 10 -40 10
-22 0 -40 -4 -40 -10z"></path>
<path d="M3544 2807 c-8 -22 3 -37 28 -37 11 0 27 -8 34 -17 10 -14 26 -18 79
-16 38 0 72 7 82 15 9 7 32 18 52 23 20 6 36 17 36 25 0 19 -106 15 -149 -6
-37 -18 -83 -18 -93 0 -13 23 -62 31 -69 13z"></path>
<path d="M5540 2610 c36 -30 50 -36 50 -22 0 11 -56 52 -72 52 -7 0 3 -13 22
-30z"></path>
<path d="M5612 2558 c3 -7 13 -15 24 -17 16 -3 17 -1 5 13 -16 19 -34 21 -29
4z"></path>
<path d="M5670 2512 c0 -9 55 -52 66 -52 4 0 -5 14 -21 30 -28 30 -45 38 -45
22z"></path>
<path d="M2035 2480 c-3 -5 1 -10 9 -10 9 0 16 5 16 10 0 6 -4 10 -9 10 -6 0
-13 -4 -16 -10z"></path>
<path d="M1935 2440 c-3 -5 3 -10 14 -10 12 0 21 5 21 10 0 6 -6 10 -14 10 -8
0 -18 -4 -21 -10z"></path>
<path d="M1830 2400 c0 -5 7 -10 15 -10 8 0 15 5 15 10 0 6 -7 10 -15 10 -8 0
-15 -4 -15 -10z"></path>
<path d="M5800 2390 c0 -5 5 -10 11 -10 5 0 7 5 4 10 -3 6 -8 10 -11 10 -2 0
-4 -4 -4 -10z"></path>
<path d="M5210 2274 c0 -5 14 -23 30 -39 17 -16 30 -34 30 -41 0 -7 11 -26 25
-42 14 -17 25 -34 25 -39 0 -6 9 -18 20 -28 20 -18 21 -18 14 1 -4 10 -15 28
-24 39 -10 11 -25 34 -33 50 -19 37 -86 114 -87 99z"></path>
<path d="M1720 2100 c0 -5 5 -10 10 -10 6 0 10 5 10 10 0 6 -4 10 -10 10 -5 0
-10 -4 -10 -10z"></path>
<path d="M5390 1992 c0 -5 7 -17 15 -28 15 -19 20 -8 9 20 -6 17 -24 22 -24 8z"></path>
<path d="M5440 1906 c0 -8 5 -18 11 -21 5 -4 15 -19 21 -33 6 -17 12 -22 15
-14 3 7 -2 21 -11 31 -9 10 -16 23 -16 29 0 6 -4 14 -10 17 -5 3 -10 -1 -10
-9z"></path>
<path d="M4830 1889 c0 -14 7 -34 15 -45 15 -18 16 -17 9 16 -8 44 -24 63 -24
29z"></path>
<path d="M4870 1765 c0 -14 5 -25 10 -25 6 0 10 11 10 25 0 14 -4 25 -10 25
-5 0 -10 -11 -10 -25z"></path>
<path d="M2752 1718 c-14 -14 -16 -28 -3 -28 9 0 24 30 18 36 -2 2 -9 -2 -15
-8z"></path>
<path d="M4880 1710 c0 -5 5 -10 10 -10 6 0 10 5 10 10 0 6 -4 10 -10 10 -5 0
-10 -4 -10 -10z"></path>
<path d="M3870 1655 c0 -14 5 -25 10 -25 6 0 10 11 10 25 0 14 -4 25 -10 25
-5 0 -10 -11 -10 -25z"></path>
<path d="M3310 1655 c0 -8 5 -15 10 -15 6 0 10 7 10 15 0 8 -4 15 -10 15 -5 0
-10 -7 -10 -15z"></path>
<path d="M2682 1619 c-13 -16 -22 -34 -20 -40 2 -6 15 8 30 30 31 47 24 54
-10 10z"></path>
<path d="M4910 1610 c0 -11 5 -20 10 -20 6 0 10 9 10 20 0 11 -4 20 -10 20 -5
0 -10 -9 -10 -20z"></path>
<path d="M3300 1610 c0 -5 5 -10 10 -10 6 0 10 5 10 10 0 6 -4 10 -10 10 -5 0
-10 -4 -10 -10z"></path>
<path d="M3860 1585 c0 -14 5 -25 10 -25 6 0 10 11 10 25 0 14 -4 25 -10 25
-5 0 -10 -11 -10 -25z"></path>
<path d="M5170 1580 c0 -5 5 -10 10 -10 6 0 10 5 10 10 0 6 -4 10 -10 10 -5 0
-10 -4 -10 -10z"></path>
<path d="M3266 1544 c-9 -22 3 -32 14 -14 12 19 12 30 1 30 -5 0 -12 -7 -15
-16z"></path>
<path d="M3835 1497 c-4 -10 -5 -21 -1 -24 10 -10 18 4 13 24 -4 17 -4 17 -12
0z"></path>
<path d="M2587 1483 c-4 -3 -7 -11 -7 -17 0 -6 5 -5 12 2 6 6 9 14 7 17 -3 3
-9 2 -12 -2z"></path>
<path d="M3226 1441 c-4 -7 -5 -15 -2 -18 9 -9 19 4 14 18 -4 11 -6 11 -12 0z"></path>
<path d="M3820 1435 c0 -8 5 -15 10 -15 6 0 10 7 10 15 0 8 -4 15 -10 15 -5 0
-10 -7 -10 -15z"></path>
<path d="M4950 1425 c0 -14 5 -25 10 -25 6 0 10 11 10 25 0 14 -4 25 -10 25
-5 0 -10 -11 -10 -25z"></path>
<path d="M3185 1349 c-6 -19 0 -38 9 -28 10 12 16 49 7 49 -5 0 -13 -9 -16
-21z"></path>
<path d="M3786 1348 c-3 -13 -6 -32 -6 -42 0 -29 17 -7 25 32 7 36 -9 45 -19
10z"></path>
<path d="M3146 1251 c-4 -7 -5 -15 -2 -18 9 -9 19 4 14 18 -4 11 -6 11 -12 0z"></path>
<path d="M3756 1251 c-4 -7 -5 -15 -2 -18 9 -9 19 4 14 18 -4 11 -6 11 -12 0z"></path>
<path d="M3740 1195 c0 -8 5 -15 10 -15 6 0 10 7 10 15 0 8 -4 15 -10 15 -5 0
-10 -7 -10 -15z"></path>
</g>
</svg>